<!DOCTYPE svg PUBLIC "-//W3C//DTD SVG 1.1//EN" "http://www.w3.org/Graphics/SVG/1.1/DTD/svg11.dtd">
<!-- Uploaded to: SVG Repo, www.svgrepo.com, Transformed by: SVG Repo Mixer Tools -->
<svg fill="#6A7281" version="1.1" id="Capa_1" xmlns="http://www.w3.org/2000/svg" xmlns:xlink="http://www.w3.org/1999/xlink" width="800px" height="800px" viewBox="0 0 219.382 219.381" xml:space="preserve">
<g id="SVGRepo_bgCarrier" stroke-width="0"/>
<g id="SVGRepo_tracerCarrier" stroke-linecap="round" stroke-linejoin="round"/>
<g id="SVGRepo_iconCarrier"> <g> <g> <path d="M206.66,151.69c-2.051,0-4.027,0.621-5.713,1.795c-16.465,11.475-35.813,17.539-55.947,17.539c-54.039,0-98-43.963-98-98 c0-20.136,6.064-39.482,17.537-55.949c2.773-3.979,2.297-9.357-1.133-12.788c-1.889-1.889-4.402-2.929-7.076-2.929 c-2.051,0-4.025,0.621-5.713,1.795C18.921,25.237,0,61.451,0,100.024c0,65.064,52.934,118,118,118 c38.572,0,74.785-18.922,96.869-50.617c2.773-3.98,2.297-9.357-1.133-12.788C211.848,152.73,209.334,151.69,206.66,151.69z"/> <path d="M105.222,75.381h50.326c13.144,0,23.798-10.655,23.798-23.798c0-13.144-10.654-23.798-23.798-23.798 c-2.918,0-5.71,0.527-8.293,1.486c0.013-0.299,0.022-0.599,0.022-0.901c0-13.143-10.654-23.798-23.797-23.798 c-13.145,0-23.798,10.655-23.798,23.798c0,0.023,0.001,0.046,0.002,0.068c-10.472,2.497-18.261,11.909-18.261,23.145 C81.424,64.726,92.079,75.381,105.222,75.381z"/> <path d="M169.676,93.877c0,0.016,0,0.029,0.001,0.043c-6.532,1.559-11.396,7.431-11.396,14.441c0,8.2,6.648,14.851,14.851,14.851 h31.401c8.199,0,14.849-6.649,14.849-14.851s-6.647-14.85-14.849-14.85c-1.82,0-3.563,0.33-5.174,0.928 c0.006-0.187,0.014-0.373,0.014-0.563c0-8.199-6.648-14.849-14.85-14.849C176.324,79.028,169.676,85.677,169.676,93.877z"/> </g> </g> </g>
</svg>